<?xml version="1.0" standalone="no"?>
<!DOCTYPE svg PUBLIC "-//W3C//DTD SVG 20010904//EN"
 "http://www.w3.org/TR/2001/REC-SVG-20010904/DTD/svg10.dtd">
<svg version="1.0" xmlns="http://www.w3.org/2000/svg"
 width="800.000000pt" height="800.000000pt" viewBox="0 0 800.000000 800.000000"
 preserveAspectRatio="xMidYMid meet">

<g transform="translate(0.000000,800.000000) scale(0.100000,-0.100000)"
fill="#000000" stroke="none">
<path d="M3759 7990 c-1264 -83 -2390 -731 -3086 -1775 -401 -602 -622 -1269
-664 -2012 -23 -404 27 -870 136 -1263 256 -927 839 -1733 1640 -2267 1075
-717 2429 -868 3645 -407 390 149 792 385 1129 663 434 360 798 828 1047 1346
262 545 387 1106 387 1725 0 561 -102 1067 -314 1563 -111 259 -189 402 -355
652 -301 454 -655 807 -1109 1109 -202 134 -306 194 -497 285 -407 195 -845
318 -1300 366 -177 18 -499 26 -659 15z m-854 -2120 c40 -19 154 -127 565
-536 l515 -513 520 518 c587 585 550 556 705 556 129 -1 141 -9 457 -327 308
-310 316 -321 317 -448 0 -142 18 -120 -563 -702 l-516 -518 512 -512 c580
-581 567 -565 567 -708 0 -135 -13 -154 -327 -466 -252 -251 -277 -273 -332
-294 -79 -29 -197 -25 -265 9 -31 16 -203 181 -560 537 l-515 514 -510 -510
c-361 -361 -524 -517 -559 -536 -72 -40 -186 -45 -271 -14 -56 21 -80 43 -336
299 -318 318 -323 325 -323 461 0 142 -19 118 563 703 l516 517 -521 523
c-583 584 -559 554 -559 697 0 130 17 155 298 438 256 258 305 300 377 326 64
23 179 16 245 -14z"/>
</g>
</svg>
